<?xml version="1.0" encoding="UTF-8"?>
<svg width="800" height="200" version="1.1" viewBox="0 0 800 200" xmlns="http://www.w3.org/2000/svg">
 <g fill="#1eb300">
  <path d="m100 20c-11.046 0-20 8.954-20 20v120c0 11.046 8.954 20 20 20s20-8.954 20-20v-120c0-11.046-8.954-20-20-20z"/>
  <path d="m220 20h-40c-11.046 0-20 8.954-20 20v120c0 11.046 8.954 20 20 20h40c11.046 0 20-8.954 20-20v-120c0-11.046-8.954-20-20-20zm-20 120h-20v-80h20z"/>
  <path d="m340 20h-40c-11.046 0-20 8.954-20 20v120c0 11.046 8.954 20 20 20h40c11.046 0 20-8.954 20-20v-120c0-11.046-8.954-20-20-20zm-20 120h-20v-80h20z"/>
  <path d="m460 20h-40c-11.046 0-20 8.954-20 20v120c0 11.046 8.954 20 20 20h40c11.046 0 20-8.954 20-20v-120c0-11.046-8.954-20-20-20zm-20 120h-20v-80h20z"/>
  <path d="m580 20h-40c-11.046 0-20 8.954-20 20v120c0 11.046 8.954 20 20 20h40c11.046 0 20-8.954 20-20v-120c0-11.046-8.954-20-20-20zm-20 120h-20v-80h20z"/>
  <path d="m700 20h-40c-11.046 0-20 8.954-20 20v120c0 11.046 8.954 20 20 20h40c11.046 0 20-8.954 20-20v-120c0-11.046-8.954-20-20-20zm-20 120h-20v-80h20z"/>
  <circle cx="50" cy="50" r="20"/>
 </g>
</svg> 